<mxfile host="Electron" agent="Mozilla/5.0 (Windows NT 10.0; Win64; x64) AppleWebKit/537.36 (KHTML, like Gecko) draw.io/27.0.9 Chrome/134.0.6998.205 Electron/35.4.0 Safari/537.36" version="27.0.9">
  <diagram name="Page-1" id="FtkAweumNyCmDMZChYh6">
    <mxGraphModel dx="1042" dy="674" grid="1" gridSize="10" guides="1" tooltips="1" connect="1" arrows="1" fold="1" page="1" pageScale="1" pageWidth="1100" pageHeight="850" math="0" shadow="0">
      <root>
        <mxCell id="0" />
        <mxCell id="1" parent="0" />
        <mxCell id="kzEtP0gKmivSJp42GZrr-25" value="" style="rounded=1;whiteSpace=wrap;html=1;arcSize=7;fillColor=none;" parent="1" vertex="1">
          <mxGeometry x="110" y="30" width="490" height="420" as="geometry" />
        </mxCell>
        <mxCell id="kzEtP0gKmivSJp42GZrr-26" value="" style="rounded=1;whiteSpace=wrap;html=1;arcSize=7;fillColor=none;" parent="1" vertex="1">
          <mxGeometry x="620" y="30" width="430" height="420" as="geometry" />
        </mxCell>
        <mxCell id="kzEtP0gKmivSJp42GZrr-1" value="crm_sales_details" style="swimlane;fontStyle=0;childLayout=stackLayout;horizontal=1;startSize=30;horizontalStack=0;resizeParent=1;resizeParentMax=0;resizeLast=0;collapsible=1;marginBottom=0;whiteSpace=wrap;html=1;rounded=1;arcSize=10;fillColor=#99CCFF;fontSize=14;fontColor=#000000;" parent="1" vertex="1">
          <mxGeometry x="150" y="160" width="160" height="110" as="geometry">
            <mxRectangle x="140" y="140" width="150" height="30" as="alternateBounds" />
          </mxGeometry>
        </mxCell>
        <mxCell id="kzEtP0gKmivSJp42GZrr-2" value="sls_prd_key" style="text;strokeColor=none;fillColor=none;align=left;verticalAlign=middle;spacingLeft=4;spacingRight=4;overflow=hidden;points=[[0,0.5],[1,0.5]];portConstraint=eastwest;rotatable=0;whiteSpace=wrap;html=1;" parent="kzEtP0gKmivSJp42GZrr-1" vertex="1">
          <mxGeometry y="30" width="160" height="30" as="geometry" />
        </mxCell>
        <mxCell id="kzEtP0gKmivSJp42GZrr-10" value="sls_cust_id" style="text;strokeColor=none;fillColor=none;align=left;verticalAlign=middle;spacingLeft=4;spacingRight=4;overflow=hidden;points=[[0,0.5],[1,0.5]];portConstraint=eastwest;rotatable=0;whiteSpace=wrap;html=1;" parent="kzEtP0gKmivSJp42GZrr-1" vertex="1">
          <mxGeometry y="60" width="160" height="30" as="geometry" />
        </mxCell>
        <mxCell id="zxlQ8VHbIsYDqXDVM84b-11" value="&lt;b&gt;SALES&lt;/b&gt;" style="text;strokeColor=#001DBC;fillColor=#0050ef;align=center;verticalAlign=middle;spacingLeft=4;spacingRight=4;overflow=hidden;points=[[0,0.5],[1,0.5]];portConstraint=eastwest;rotatable=0;whiteSpace=wrap;html=1;fontColor=#ffffff;" vertex="1" parent="kzEtP0gKmivSJp42GZrr-1">
          <mxGeometry y="90" width="160" height="20" as="geometry" />
        </mxCell>
        <mxCell id="kzEtP0gKmivSJp42GZrr-6" value="crm_cust_info" style="swimlane;fontStyle=0;childLayout=stackLayout;horizontal=1;startSize=30;horizontalStack=0;resizeParent=1;resizeParentMax=0;resizeLast=0;collapsible=1;marginBottom=0;whiteSpace=wrap;html=1;rounded=1;arcSize=10;fillColor=#99CCFF;fontSize=14;fontColor=#000000;" parent="1" vertex="1">
          <mxGeometry x="410" y="280" width="160" height="110" as="geometry">
            <mxRectangle x="140" y="140" width="150" height="30" as="alternateBounds" />
          </mxGeometry>
        </mxCell>
        <mxCell id="kzEtP0gKmivSJp42GZrr-7" value="cst_id" style="text;strokeColor=none;fillColor=none;align=left;verticalAlign=middle;spacingLeft=4;spacingRight=4;overflow=hidden;points=[[0,0.5],[1,0.5]];portConstraint=eastwest;rotatable=0;whiteSpace=wrap;html=1;" parent="kzEtP0gKmivSJp42GZrr-6" vertex="1">
          <mxGeometry y="30" width="160" height="30" as="geometry" />
        </mxCell>
        <mxCell id="kzEtP0gKmivSJp42GZrr-13" value="cst_key" style="text;strokeColor=none;fillColor=none;align=left;verticalAlign=middle;spacingLeft=4;spacingRight=4;overflow=hidden;points=[[0,0.5],[1,0.5]];portConstraint=eastwest;rotatable=0;whiteSpace=wrap;html=1;" parent="kzEtP0gKmivSJp42GZrr-6" vertex="1">
          <mxGeometry y="60" width="160" height="30" as="geometry" />
        </mxCell>
        <mxCell id="zxlQ8VHbIsYDqXDVM84b-14" value="&lt;b&gt;CUSTOMER&lt;/b&gt;" style="text;html=1;strokeColor=#A50040;fillColor=#d80073;align=center;verticalAlign=middle;whiteSpace=wrap;overflow=hidden;fontFamily=Helvetica;fontSize=12;fontColor=#ffffff;" vertex="1" parent="kzEtP0gKmivSJp42GZrr-6">
          <mxGeometry y="90" width="160" height="20" as="geometry" />
        </mxCell>
        <mxCell id="kzEtP0gKmivSJp42GZrr-8" value="crm_prd_info" style="swimlane;fontStyle=0;childLayout=stackLayout;horizontal=1;startSize=30;horizontalStack=0;resizeParent=1;resizeParentMax=0;resizeLast=0;collapsible=1;marginBottom=0;whiteSpace=wrap;html=1;rounded=1;arcSize=10;fillColor=#99CCFF;fontSize=14;fontColor=#000000;" parent="1" vertex="1">
          <mxGeometry x="410" y="90" width="160" height="80" as="geometry">
            <mxRectangle x="140" y="140" width="150" height="30" as="alternateBounds" />
          </mxGeometry>
        </mxCell>
        <mxCell id="kzEtP0gKmivSJp42GZrr-9" value="prd_key" style="text;strokeColor=none;fillColor=none;align=left;verticalAlign=middle;spacingLeft=4;spacingRight=4;overflow=hidden;points=[[0,0.5],[1,0.5]];portConstraint=eastwest;rotatable=0;whiteSpace=wrap;html=1;" parent="kzEtP0gKmivSJp42GZrr-8" vertex="1">
          <mxGeometry y="30" width="160" height="30" as="geometry" />
        </mxCell>
        <mxCell id="zxlQ8VHbIsYDqXDVM84b-2" value="&lt;b&gt;PRODUCT&lt;/b&gt;" style="text;strokeColor=#2D7600;fillColor=#60a917;align=center;verticalAlign=middle;spacingLeft=4;spacingRight=4;overflow=hidden;points=[[0,0.5],[1,0.5]];portConstraint=eastwest;rotatable=0;whiteSpace=wrap;html=1;fontColor=#ffffff;" vertex="1" parent="kzEtP0gKmivSJp42GZrr-8">
          <mxGeometry y="60" width="160" height="20" as="geometry" />
        </mxCell>
        <mxCell id="kzEtP0gKmivSJp42GZrr-11" style="edgeStyle=orthogonalEdgeStyle;rounded=0;orthogonalLoop=1;jettySize=auto;html=1;entryX=0;entryY=0.5;entryDx=0;entryDy=0;" parent="1" source="kzEtP0gKmivSJp42GZrr-10" target="kzEtP0gKmivSJp42GZrr-7" edge="1">
          <mxGeometry relative="1" as="geometry" />
        </mxCell>
        <mxCell id="kzEtP0gKmivSJp42GZrr-12" style="edgeStyle=orthogonalEdgeStyle;rounded=0;orthogonalLoop=1;jettySize=auto;html=1;entryX=0;entryY=0.5;entryDx=0;entryDy=0;" parent="1" source="kzEtP0gKmivSJp42GZrr-2" target="kzEtP0gKmivSJp42GZrr-9" edge="1">
          <mxGeometry relative="1" as="geometry" />
        </mxCell>
        <mxCell id="kzEtP0gKmivSJp42GZrr-14" value="erp_CUST_AZ12" style="swimlane;fontStyle=0;childLayout=stackLayout;horizontal=1;startSize=30;horizontalStack=0;resizeParent=1;resizeParentMax=0;resizeLast=0;collapsible=1;marginBottom=0;whiteSpace=wrap;html=1;rounded=1;arcSize=10;fillColor=#FFB366;fontSize=14;fontColor=#000000;" parent="1" vertex="1">
          <mxGeometry x="770" y="220" width="160" height="80" as="geometry">
            <mxRectangle x="140" y="140" width="150" height="30" as="alternateBounds" />
          </mxGeometry>
        </mxCell>
        <mxCell id="kzEtP0gKmivSJp42GZrr-15" value="CID" style="text;strokeColor=none;fillColor=none;align=left;verticalAlign=middle;spacingLeft=4;spacingRight=4;overflow=hidden;points=[[0,0.5],[1,0.5]];portConstraint=eastwest;rotatable=0;whiteSpace=wrap;html=1;" parent="kzEtP0gKmivSJp42GZrr-14" vertex="1">
          <mxGeometry y="30" width="160" height="30" as="geometry" />
        </mxCell>
        <mxCell id="zxlQ8VHbIsYDqXDVM84b-15" value="&lt;b&gt;CUSTOMER&lt;/b&gt;" style="text;html=1;strokeColor=#A50040;fillColor=#d80073;align=center;verticalAlign=middle;whiteSpace=wrap;overflow=hidden;fontFamily=Helvetica;fontSize=12;fontColor=#ffffff;" vertex="1" parent="kzEtP0gKmivSJp42GZrr-14">
          <mxGeometry y="60" width="160" height="20" as="geometry" />
        </mxCell>
        <mxCell id="kzEtP0gKmivSJp42GZrr-16" style="edgeStyle=orthogonalEdgeStyle;rounded=0;orthogonalLoop=1;jettySize=auto;html=1;entryX=0;entryY=0.5;entryDx=0;entryDy=0;" parent="1" source="kzEtP0gKmivSJp42GZrr-13" target="kzEtP0gKmivSJp42GZrr-15" edge="1">
          <mxGeometry relative="1" as="geometry" />
        </mxCell>
        <mxCell id="kzEtP0gKmivSJp42GZrr-17" value="erp_LOC_A101" style="swimlane;fontStyle=0;childLayout=stackLayout;horizontal=1;startSize=30;horizontalStack=0;resizeParent=1;resizeParentMax=0;resizeLast=0;collapsible=1;marginBottom=0;whiteSpace=wrap;html=1;rounded=1;arcSize=10;fillColor=#FFB366;fontSize=14;fontColor=#000000;" parent="1" vertex="1">
          <mxGeometry x="770" y="350" width="160" height="60" as="geometry">
            <mxRectangle x="140" y="140" width="150" height="30" as="alternateBounds" />
          </mxGeometry>
        </mxCell>
        <mxCell id="kzEtP0gKmivSJp42GZrr-18" value="CID" style="text;strokeColor=none;fillColor=none;align=left;verticalAlign=middle;spacingLeft=4;spacingRight=4;overflow=hidden;points=[[0,0.5],[1,0.5]];portConstraint=eastwest;rotatable=0;whiteSpace=wrap;html=1;" parent="kzEtP0gKmivSJp42GZrr-17" vertex="1">
          <mxGeometry y="30" width="160" height="30" as="geometry" />
        </mxCell>
        <mxCell id="kzEtP0gKmivSJp42GZrr-19" value="erp_PX_CAT_G1V2" style="swimlane;fontStyle=0;childLayout=stackLayout;horizontal=1;startSize=30;horizontalStack=0;resizeParent=1;resizeParentMax=0;resizeLast=0;collapsible=1;marginBottom=0;whiteSpace=wrap;html=1;rounded=1;arcSize=10;fillColor=#FFB366;fontSize=14;fontColor=#000000;" parent="1" vertex="1">
          <mxGeometry x="770" y="100" width="160" height="80" as="geometry">
            <mxRectangle x="140" y="140" width="150" height="30" as="alternateBounds" />
          </mxGeometry>
        </mxCell>
        <mxCell id="kzEtP0gKmivSJp42GZrr-20" value="ID" style="text;strokeColor=none;fillColor=none;align=left;verticalAlign=middle;spacingLeft=4;spacingRight=4;overflow=hidden;points=[[0,0.5],[1,0.5]];portConstraint=eastwest;rotatable=0;whiteSpace=wrap;html=1;" parent="kzEtP0gKmivSJp42GZrr-19" vertex="1">
          <mxGeometry y="30" width="160" height="30" as="geometry" />
        </mxCell>
        <mxCell id="zxlQ8VHbIsYDqXDVM84b-6" value="&lt;b&gt;PRODUCT&lt;/b&gt;" style="text;strokeColor=#2D7600;fillColor=#60a917;align=center;verticalAlign=middle;spacingLeft=4;spacingRight=4;overflow=hidden;points=[[0,0.5],[1,0.5]];portConstraint=eastwest;rotatable=0;whiteSpace=wrap;html=1;fontColor=#ffffff;" vertex="1" parent="kzEtP0gKmivSJp42GZrr-19">
          <mxGeometry y="60" width="160" height="20" as="geometry" />
        </mxCell>
        <mxCell id="kzEtP0gKmivSJp42GZrr-23" style="edgeStyle=orthogonalEdgeStyle;rounded=0;orthogonalLoop=1;jettySize=auto;html=1;entryX=0;entryY=0.5;entryDx=0;entryDy=0;" parent="1" source="kzEtP0gKmivSJp42GZrr-9" target="kzEtP0gKmivSJp42GZrr-20" edge="1">
          <mxGeometry relative="1" as="geometry" />
        </mxCell>
        <mxCell id="kzEtP0gKmivSJp42GZrr-24" style="edgeStyle=orthogonalEdgeStyle;rounded=0;orthogonalLoop=1;jettySize=auto;html=1;entryX=0;entryY=0.5;entryDx=0;entryDy=0;" parent="1" source="kzEtP0gKmivSJp42GZrr-13" target="kzEtP0gKmivSJp42GZrr-18" edge="1">
          <mxGeometry relative="1" as="geometry" />
        </mxCell>
        <mxCell id="kzEtP0gKmivSJp42GZrr-27" value="CRM" style="rounded=1;whiteSpace=wrap;html=1;fillColor=#99CCFF;fontColor=#000000;fontSize=25;fontStyle=1" parent="1" vertex="1">
          <mxGeometry x="280" y="10" width="120" height="40" as="geometry" />
        </mxCell>
        <mxCell id="kzEtP0gKmivSJp42GZrr-28" value="ERP" style="rounded=1;whiteSpace=wrap;html=1;fillColor=#FFB366;fontColor=#000000;fontSize=25;fontStyle=1" parent="1" vertex="1">
          <mxGeometry x="780" y="10" width="120" height="40" as="geometry" />
        </mxCell>
        <mxCell id="kzEtP0gKmivSJp42GZrr-29" value="transactional records of Sales and orders" style="text;html=1;align=center;verticalAlign=middle;whiteSpace=wrap;rounded=0;" parent="1" vertex="1">
          <mxGeometry x="160" y="130" width="140" height="30" as="geometry" />
        </mxCell>
        <mxCell id="kzEtP0gKmivSJp42GZrr-30" value="current &amp;amp; history product information" style="text;html=1;align=center;verticalAlign=middle;whiteSpace=wrap;rounded=0;" parent="1" vertex="1">
          <mxGeometry x="380" y="60" width="220" height="30" as="geometry" />
        </mxCell>
        <mxCell id="kzEtP0gKmivSJp42GZrr-31" value="customer information" style="text;html=1;align=center;verticalAlign=middle;whiteSpace=wrap;rounded=0;" parent="1" vertex="1">
          <mxGeometry x="420" y="250" width="140" height="30" as="geometry" />
        </mxCell>
        <mxCell id="kzEtP0gKmivSJp42GZrr-32" value="Product Categories" style="text;html=1;align=center;verticalAlign=middle;whiteSpace=wrap;rounded=0;" parent="1" vertex="1">
          <mxGeometry x="740" y="70" width="220" height="30" as="geometry" />
        </mxCell>
        <mxCell id="kzEtP0gKmivSJp42GZrr-33" value="Extra Customer Information (Birthdate)" style="text;html=1;align=center;verticalAlign=middle;whiteSpace=wrap;rounded=0;" parent="1" vertex="1">
          <mxGeometry x="740" y="190" width="220" height="30" as="geometry" />
        </mxCell>
        <mxCell id="kzEtP0gKmivSJp42GZrr-34" value="Location of Customer (Country)" style="text;html=1;align=center;verticalAlign=middle;whiteSpace=wrap;rounded=0;" parent="1" vertex="1">
          <mxGeometry x="740" y="320" width="220" height="30" as="geometry" />
        </mxCell>
        <mxCell id="zxlQ8VHbIsYDqXDVM84b-16" value="&lt;b&gt;CUSTOMER&lt;/b&gt;" style="text;html=1;strokeColor=#A50040;fillColor=#d80073;align=center;verticalAlign=middle;whiteSpace=wrap;overflow=hidden;fontFamily=Helvetica;fontSize=12;fontColor=#ffffff;" vertex="1" parent="1">
          <mxGeometry x="770" y="405" width="160" height="20" as="geometry" />
        </mxCell>
      </root>
    </mxGraphModel>
  </diagram>
</mxfile>
